# xmcd
#
# Track frame offsets: 
#        150
#        12085
#        23377
#        33982
#        45097
#        55552
#        67715
#        79210
#        86055
#        96507
#        105170
#        113705
#        123940
#        132215
#        139522
#        150442
#        163860
#        174787
#        185817
#        204102
#        220365
#        231577
#        238622
#        245477
#        253425
#        258950
#        261665
#        265487
#        267532
#
# Disc length: 3591 seconds
#
# Revision: 0
# Processed by: cddbd v1.4PL0 Copyright (c) Steve Scherf et al.
# Submitted via: ExactAudioCopy v0.90b3
#
DISCID=8a0e051d
DTITLE=Waylon Jennings - The Journey: Destiny's Child - Disc 2
DYEAR=1900
DGENRE=Country
TTITLE0=Crying (1965)
TTITLE1=Sally Was A Good Ole Girl (1965)
TTITLE2=Burning Memories (1965)
TTITLE3=Big Mamou (1965)
TTITLE4=Money (Gerald W. Gropp: Vocal) (1965)
TTITLE5=Don't Think Twice, It's Alright (1965)
TTITLE6=Dream Baby (1965)
TTITLE7=It's So Easy (1965)
TTITLE8=Lorena (Paul E. Foster: Vocal) (1965)
TTITLE9=Love's Gonna Live Here (1965)
TTITLE10=Abiene (Waylon, Paul and Gerry) (1965)
TTITLE11=White Lightnin' (1965)
TTITLE12=Step Aside (1999)
TTITLE13=Memories (1999)
TTITLE14=Mental Revenage (1999)
TTITLE15=Don't Think Twice, It's Alright (1970)
TTITLE16=The Twelfth Of Never (1970)
TTITLE17=Kisses Sweeter Than Wine (1970)
TTITLE18=I Don't Believe You (1970)
TTITLE19=The Real House Of The Rising Sun (1970)
TTITLE20=Living Proof (& Jessi Colter) (1999)
TTITLE21=Charlie Lay Down The Gun (1999) 
TTITLE22=Wave Goodbye To Me (1999)
TTITLE23=Words Come Easy (1999)
TTITLE24=Red Velvet (1999)
TTITLE25=Sunbeam Bread Jingle (1999)
TTITLE26=Stop The World And Have A Coke (1999)
TTITLE27=Time To Bum Again (A Pause For A Coke) (1999)
TTITLE28=Roberts Bicycle Jingle (& Ray Corbin) (1999)
EXTD=
EXTT0=
EXTT1=
EXTT2=
EXTT3=
EXTT4=
EXTT5=
EXTT6=
EXTT7=
EXTT8=
EXTT9=
EXTT10=
EXTT11=
EXTT12=
EXTT13=
EXTT14=
EXTT15=
EXTT16=
EXTT17=
EXTT18=
EXTT19=
EXTT20=
EXTT21=
EXTT22=
EXTT23=
EXTT24=
EXTT25=
EXTT26=
EXTT27=
EXTT28=
PLAYORDER=
